<svg width="41" height="41" viewBox="0 0 41 41" fill="none" xmlns="http://www.w3.org/2000/svg">
<path d="M40.5902 24.642C40.4133 25.3261 40.2363 26.0103 40.0599 26.6939C39.9414 27.0381 39.8229 27.3822 39.7045 27.7264C39.4024 28.4131 39.1003 29.1003 38.7977 29.787C38.6746 30.0216 38.5515 30.2562 38.4284 30.4902C38.1546 30.9403 37.8807 31.391 37.6063 31.8411C37.5391 31.9409 37.4719 32.0406 37.4047 32.141C37.2298 32.3832 37.0555 32.6255 36.8806 32.8678C36.3569 33.4763 35.862 34.1127 35.3024 34.6857C34.6649 35.339 33.97 35.9357 33.2996 36.5566C33.116 36.7006 32.9324 36.8447 32.7488 36.9892C32.5908 37.1024 32.4324 37.2161 32.2744 37.3292C31.9328 37.5566 31.5912 37.7834 31.2497 38.0108C30.9096 38.2047 30.5696 38.3981 30.2296 38.5921C29.948 38.7392 29.6664 38.8863 29.3848 39.0334C29.3243 39.0592 29.2643 39.0854 29.2038 39.1111C28.8612 39.2623 28.5181 39.4136 28.1755 39.5653C27.4913 39.802 26.8066 40.0381 26.1224 40.2747C25.7814 40.3621 25.4398 40.4496 25.0987 40.537C24.7566 40.606 24.4151 40.6749 24.073 40.7438C23.7309 40.7953 23.3888 40.8462 23.0472 40.8976C22.7051 40.9316 22.3635 40.966 22.0215 41C20.9957 40.9995 19.9704 40.999 18.9447 40.9985C18.6026 40.964 18.2605 40.9295 17.9184 40.8951C17.5768 40.8436 17.2353 40.7922 16.8937 40.7407C16.5521 40.6713 16.21 40.6013 15.8685 40.5319C15.5279 40.4434 15.1874 40.3549 14.8473 40.2659C14.6283 40.2001 14.4088 40.1343 14.1898 40.0684C13.7236 39.8971 13.2579 39.7253 12.7917 39.554C12.4491 39.4033 12.1065 39.2521 11.7639 39.1013C11.7172 39.0802 11.6705 39.0597 11.6239 39.0386C11.329 38.8863 11.0335 38.7346 10.7386 38.5823C10.4022 38.3879 10.0657 38.1939 9.7293 37.9995C9.38208 37.768 9.03538 37.5365 8.68816 37.305C8.5384 37.198 8.38915 37.0905 8.23939 36.9835C8.04655 36.8318 7.85319 36.68 7.66035 36.5283C7.17876 36.0936 6.66793 35.6867 6.22224 35.2181C5.49908 34.4578 4.81849 33.6569 4.11944 32.873C3.93275 32.6137 3.74658 32.3544 3.55989 32.0952C3.50501 32.0108 3.45013 31.927 3.39525 31.8426C3.10958 31.374 2.82391 30.9059 2.53823 30.4373C2.42284 30.2176 2.30744 29.9974 2.19204 29.7778C1.89303 29.0941 1.59403 28.411 1.29553 27.7274C1.17706 27.3848 1.05858 27.0422 0.940619 26.6996C0.765214 26.0113 0.590323 25.3231 0.414918 24.6348C0.351322 24.2943 0.288238 23.9532 0.224641 23.6127C0.185149 23.2696 0.145145 22.9259 0.105653 22.5828C0.0764189 22.2402 0.0476977 21.8977 0.0184636 21.5556C0.0123091 21.212 0.00615454 20.8688 0 20.5252C0.00564166 20.1826 0.0117962 19.8406 0.0174379 19.498C0.046159 19.1543 0.0748802 18.8112 0.103601 18.4676C0.143093 18.125 0.182585 17.7829 0.221563 17.4404C0.28516 17.0967 0.348757 16.7536 0.412354 16.41C0.437485 16.2644 0.462616 16.1189 0.487747 15.9728C0.636995 15.4332 0.786242 14.8935 0.93549 14.3539C1.05396 14.0103 1.17244 13.6667 1.29091 13.3236C1.36477 13.1255 1.43914 12.9275 1.51299 12.7295C1.73661 12.2433 1.95971 11.7567 2.18332 11.2706C2.57978 10.5865 2.97623 9.9023 3.37269 9.21866C3.43782 9.12041 3.50296 9.02164 3.56809 8.92288C3.74914 8.67493 3.92967 8.42699 4.11072 8.17905C4.2692 7.97535 4.42716 7.77164 4.58564 7.56742C4.70207 7.42802 4.81849 7.28862 4.93543 7.14921C5.24623 6.80765 5.55755 6.46557 5.86835 6.12401C6.01657 5.98409 6.16992 5.84932 6.31199 5.70323C6.48278 5.52833 6.62998 5.32771 6.81308 5.16825C7.08644 4.93008 7.38288 4.71763 7.66907 4.49438C7.84601 4.35549 8.02295 4.21609 8.19938 4.0772C8.36402 3.95837 8.52865 3.83903 8.69329 3.72021C9.03486 3.4949 9.37695 3.26959 9.71853 3.04428C10.0586 2.84778 10.3991 2.65076 10.7392 2.45426C11.0187 2.30714 11.2982 2.16002 11.5777 2.0129C11.6413 1.98564 11.7054 1.95786 11.769 1.9306C12.1085 1.78194 12.4486 1.63379 12.7881 1.48513C13.4723 1.24644 14.157 1.00776 14.8412 0.769078C15.1827 0.68163 15.5238 0.594181 15.8654 0.506733C16.208 0.437288 16.5511 0.36733 16.8937 0.297885C17.2348 0.246445 17.5758 0.19449 17.9169 0.14305C18.8857 0.0952107 19.8545 0.0375976 20.8239 0.00313261C21.2224 -0.0107563 21.6229 0.0252519 22.0225 0.0386264C22.0897 0.0411984 22.1574 0.0442848 22.2246 0.0468568C22.4989 0.077721 22.7733 0.108585 23.0477 0.139449C23.3888 0.190375 23.7293 0.241815 24.0704 0.292741C24.4135 0.362186 24.7566 0.432144 25.0992 0.501589C25.4403 0.588523 25.7814 0.675971 26.1224 0.762905C26.804 0.996444 27.4851 1.22998 28.1668 1.46352C28.5109 1.6127 28.8545 1.76188 29.1987 1.91105C29.2669 1.94346 29.3346 1.97638 29.4028 2.00879C29.6762 2.14922 29.9495 2.28965 30.2229 2.43008C30.5665 2.62967 30.9101 2.82926 31.2533 3.02885C31.2604 3.03965 31.2712 3.04531 31.2845 3.04531C31.6159 3.26496 31.9472 3.48461 32.2785 3.70375C32.4467 3.82566 32.6144 3.94757 32.7827 4.06897C32.956 4.20477 33.1299 4.34109 33.3032 4.47689C33.553 4.68523 33.8028 4.89356 34.0525 5.10189C34.4839 5.51753 34.9152 5.93317 35.3465 6.3488C35.5866 6.61732 35.8271 6.88584 36.0671 7.15384C36.1697 7.27627 36.2728 7.3987 36.3754 7.52113C36.5472 7.74078 36.719 7.96094 36.8913 8.18059C37.059 8.41156 37.2268 8.64253 37.395 8.87401C37.4683 8.98512 37.5417 9.09623 37.615 9.20734C38.0115 9.89355 38.4079 10.5803 38.8039 11.2665C39.0193 11.7217 39.2347 12.177 39.4501 12.6322C39.5368 12.8632 39.6234 13.0942 39.7096 13.3251C39.8276 13.6682 39.9455 14.0119 40.0635 14.355C40.2015 14.857 40.3399 15.3586 40.4779 15.8606C40.5153 16.0438 40.5528 16.2264 40.5902 16.4095C40.6497 16.7536 40.7092 17.0978 40.7687 17.4419C40.8118 17.7835 40.8554 18.125 40.899 18.4666C40.9226 18.8102 40.9461 19.1538 40.9697 19.4969C40.98 19.8395 40.9903 20.1816 41 20.5242C40.9897 20.8678 40.9795 21.2109 40.9687 21.5545C40.9451 21.8971 40.9215 22.2392 40.8979 22.5818C40.8523 22.9254 40.8061 23.2691 40.7605 23.6127C40.7056 23.9573 40.6477 24.2994 40.5902 24.642ZM15.4048 30.7166C15.6453 30.8287 15.8474 30.7629 16.0285 30.5859C16.4444 30.1795 16.8629 29.7762 17.2768 29.3678C18.0072 28.6466 18.7349 27.9229 19.4637 27.2001C20.2423 27.8421 21.0224 28.4825 21.7994 29.126C22.7549 29.9172 23.7001 30.7207 24.6643 31.5005C25.4798 32.16 26.684 31.7706 26.8784 30.7901C27.3513 28.4059 27.8118 26.019 28.2786 23.6338C28.9392 20.2572 29.6003 16.8807 30.2603 13.5036C30.4147 12.714 30.5711 11.9249 30.7158 11.1333C30.8378 10.4651 30.5481 10.16 29.8803 10.2788C29.4879 10.3488 29.094 10.4481 28.7237 10.5921C27.1713 11.195 25.6275 11.821 24.0796 12.4368C18.4046 14.6934 12.7286 16.9481 7.05515 19.2094C6.84436 19.2932 6.63613 19.4115 6.46175 19.5566C6.07504 19.8781 6.03863 20.3827 6.40277 20.7264C6.61254 20.9244 6.88334 21.1034 7.15722 21.1801C8.86766 21.6564 10.5868 22.1014 12.3034 22.5571C13.161 25.0088 14.0164 27.4609 14.8781 29.9115C14.9483 30.1122 15.0412 30.3076 15.1494 30.4902C15.2048 30.5828 15.3176 30.642 15.4048 30.7166Z" fill="#FF06D7"/>
</svg>
