<svg width="46" height="33" viewBox="0 0 46 33" fill="none" xmlns="http://www.w3.org/2000/svg">
<path d="M11.0246 1.14934C11.1195 1.13056 11.2143 1.11179 11.3092 1.09301C11.3869 1.06719 11.4638 1.04215 11.5416 1.01633C11.6038 0.981125 11.6667 0.945917 11.7297 0.911492C11.7725 0.903668 11.8152 0.895844 11.858 0.88802C11.931 0.863766 12.0041 0.838729 12.078 0.814475C12.1098 0.806651 12.1417 0.798044 12.1736 0.79022C12.2194 0.771443 12.2645 0.753448 12.3104 0.73467L12.3213 0.727629C12.3951 0.704157 12.4682 0.680685 12.542 0.657213C12.6501 0.626699 12.7574 0.596186 12.8654 0.56489C13.3054 0.463179 13.7454 0.361467 14.1854 0.259756C14.7832 0.17291 15.3802 0.086846 15.978 0C16.1194 0.00782396 16.2625 0.0328606 16.4016 0.0195599C16.7405 -0.0133007 16.9349 0.147091 17.0468 0.467873C16.3519 0.722152 15.6624 0.974083 14.9736 1.22601C14.8943 1.25027 14.8143 1.27452 14.735 1.29878C14.7101 1.3066 14.6844 1.31521 14.6596 1.32303C14.6067 1.34103 14.5546 1.3598 14.5018 1.3778C13.9561 1.59452 13.4103 1.81203 12.8639 2.02875C12.427 2.23061 11.9909 2.43247 11.554 2.63433C11.4467 2.68049 11.3402 2.72665 11.233 2.77281C10.7184 3.06465 10.2037 3.35726 9.68914 3.6491C9.3642 3.84782 9.04005 4.04655 8.71511 4.24528C8.49434 4.38533 8.27357 4.52538 8.05358 4.66465C7.81182 4.8313 7.56929 4.99873 7.32753 5.16538C7.35551 5.21702 7.38272 5.26866 7.41071 5.32029C7.70144 5.17633 7.99217 5.03237 8.28368 4.88841C8.67391 4.70846 9.06414 4.52851 9.45438 4.34856C9.55777 4.30787 9.66038 4.26719 9.76377 4.2265C10.1781 4.06846 10.5924 3.91042 11.0075 3.75237C11.0277 3.73829 11.0472 3.72421 11.0674 3.71012C11.1257 3.6976 11.1832 3.6843 11.2415 3.67179C11.2602 3.6577 11.2796 3.64362 11.2983 3.63032L11.3068 3.62093C11.8284 3.45115 12.3493 3.28215 12.8709 3.11237C13.2541 2.99736 13.6381 2.88235 14.0214 2.76812C14.1566 2.73135 14.2926 2.69379 14.4279 2.65702C14.5826 2.63276 14.7373 2.60851 14.892 2.58425C14.9239 2.5733 14.9557 2.56235 14.9876 2.55061C15.2395 2.49037 15.4913 2.43012 15.7424 2.3691C16.3379 2.26347 16.9333 2.15785 17.5288 2.05223C18.0457 1.9912 18.5619 1.93017 19.0788 1.86914C19.6012 1.81829 20.1244 1.76822 20.6468 1.71736C21.1606 1.69154 21.6744 1.6665 22.1883 1.64068C22.7114 1.64068 23.2338 1.64068 23.757 1.64068C24.0151 1.64225 24.2731 1.64303 24.532 1.6446C24.5817 1.66103 24.6315 1.67668 24.6813 1.69311C24.8896 1.6978 25.0971 1.70249 25.3055 1.70719C25.8255 1.76352 26.3463 1.81907 26.8664 1.8754C27.3351 1.938 27.8039 2.00137 28.2719 2.06396C28.3201 2.08039 28.369 2.09682 28.4172 2.11403C28.4709 2.11403 28.5253 2.11325 28.5789 2.11325C28.5984 2.12968 28.6209 2.13594 28.6458 2.13203C28.6652 2.14846 28.687 2.1555 28.7118 2.15394C28.7398 2.16567 28.767 2.17741 28.795 2.18914C28.8798 2.18914 28.9645 2.18914 29.0492 2.18914C29.0974 2.21105 29.1456 2.23296 29.1938 2.25487C29.298 2.2666 29.4014 2.27912 29.5055 2.29086C29.5242 2.31198 29.5475 2.3198 29.5747 2.31668L29.5739 2.31276C29.7006 2.34484 29.8281 2.3777 29.9548 2.40978C30.9732 2.68597 31.9923 2.96137 33.0106 3.23756C33.5307 3.41985 34.05 3.60215 34.57 3.78445C35.6583 4.26562 36.7466 4.74602 37.8349 5.22719C37.8683 5.18885 37.9018 5.1513 37.9352 5.11296C37.8271 5.03472 37.7214 4.95335 37.611 4.87824C37.0801 4.51756 36.5593 4.13888 36.012 3.80558C35.5433 3.52 35.0426 3.28685 34.556 3.03022C34.2684 2.88 33.9808 2.72978 33.6939 2.57956C33.5113 2.49037 33.3286 2.40117 33.1459 2.31198C32.5792 2.07883 32.0117 1.84489 31.445 1.61174C30.67 1.32616 29.8942 1.04059 29.1184 0.756577C29.0243 0.722152 28.9272 0.696333 28.7779 0.649389C28.9583 0.420147 29.113 0.223765 29.2669 0.0266015C29.2925 0.0187775 29.3182 0.0117359 29.3446 0.00391198C29.4239 0.00391198 29.5032 0.00312958 29.5833 0.00312958L29.6198 0.0140831L29.6563 0.00234719C29.7597 0.00234719 29.8631 0.00156479 29.9673 0.00156479C30.4873 0.0837164 31.0074 0.165868 31.5282 0.247237C32.0452 0.348166 32.5613 0.449096 33.0783 0.550025C33.5975 0.704939 34.1168 0.859854 34.6361 1.01477C34.6672 1.0265 34.6983 1.03824 34.7294 1.04998C34.748 1.06328 34.7667 1.07736 34.7853 1.09066C34.8157 1.1024 34.846 1.11491 34.8763 1.12665C35.3163 1.29956 35.7563 1.47247 36.1962 1.64616C36.6401 1.86445 37.0848 2.08352 37.5286 2.30181C37.5457 2.31433 37.5636 2.32685 37.5807 2.33858C37.611 2.34875 37.6406 2.35971 37.6709 2.36988C37.9057 2.50289 38.1404 2.63668 38.3752 2.76968C38.6822 2.9645 38.9901 3.1601 39.2971 3.35492C39.7628 3.76802 40.3831 4.00665 40.6412 4.65213C40.813 5.08088 41.0501 5.48303 41.2576 5.8977C41.4722 6.39218 41.6859 6.88665 41.9005 7.38113C42.07 7.80127 42.2386 8.22142 42.4081 8.64079C42.4509 8.75032 42.4936 8.85907 42.5371 8.96861C42.7323 9.48343 42.9274 9.99902 43.1225 10.5138C43.4016 11.4058 43.6806 12.2977 43.9589 13.1896C43.9558 13.2155 43.962 13.2381 43.9768 13.2585C43.9822 13.2835 43.9877 13.3093 43.9931 13.3344C44.0227 13.4369 44.0522 13.5401 44.0818 13.6426C44.2295 14.1653 44.3772 14.6887 44.5256 15.2113C44.6415 15.7379 44.7573 16.2645 44.8731 16.791C44.9742 17.309 45.0744 17.8261 45.1755 18.3441C45.2664 18.8127 45.3574 19.2806 45.4476 19.7492C45.46 19.8032 45.4732 19.858 45.4857 19.912C45.5346 20.3274 45.5828 20.7421 45.6318 21.1576C45.6676 21.2663 45.7041 21.3743 45.7399 21.483L45.7344 21.4869C45.7367 21.638 45.7391 21.7897 45.7414 21.9407C45.7507 21.965 45.7601 21.99 45.7694 22.0143C45.802 22.357 45.8355 22.6997 45.8681 23.0424C45.9023 23.5642 45.9373 24.0869 45.9723 24.6087C45.9808 25.129 45.9886 25.6493 45.9972 26.1696C46.001 26.7259 46.0438 27.2923 45.6023 27.7352C45.5688 27.7813 45.5346 27.8275 45.5012 27.8729C45.4079 27.9824 45.3146 28.0927 45.2221 28.2023C45.2058 28.2156 45.198 28.2328 45.198 28.2539C45.1312 28.3173 45.0636 28.3799 44.9967 28.4432C44.9656 28.4745 44.9337 28.5058 44.9026 28.5371C44.856 28.5841 44.8101 28.631 44.7635 28.6772C44.7013 28.7437 44.6399 28.811 44.5777 28.8775C44.5505 28.9111 44.5241 28.9447 44.4969 28.9784L44.5015 28.9706C44.4588 29.0034 44.416 29.0355 44.3733 29.0684C44.3204 29.12 44.2668 29.1716 44.2139 29.2233C44.1781 29.235 44.1424 29.2475 44.1066 29.2593L44.0755 29.264L44.0693 29.2968C44.053 29.3 44.046 29.3093 44.0476 29.3258C44.0165 29.3672 43.9846 29.4087 43.9535 29.4502L43.955 29.4416C43.7281 29.6067 43.5011 29.7725 43.2741 29.9368C42.8496 30.2427 42.4252 30.5479 42.0008 30.8538C41.9254 30.9023 41.8492 30.9516 41.7738 31.0001L41.7668 31.0064C41.6914 31.0283 41.616 31.0494 41.5406 31.0713L41.5087 31.0666L41.4955 31.1003C41.2825 31.2231 41.0687 31.3459 40.8557 31.4695L40.8231 31.4625L40.8052 31.493C39.7845 31.8435 38.7639 32.194 37.7432 32.5446C37.5885 32.5884 37.4338 32.6322 37.2783 32.6752C37.2542 32.683 37.2294 32.6909 37.2053 32.6995C36.8671 32.7519 36.5297 32.8043 36.1916 32.8575C35.6723 32.9006 35.153 32.9436 34.6338 32.9866C33.8043 33.1001 33.4568 32.4702 33.0433 31.9421C33.0417 31.9179 33.0324 31.8975 33.0153 31.8803C32.7743 31.5994 32.5341 31.3185 32.2931 31.0384C32.2651 30.9829 32.2372 30.9273 32.2092 30.8718C31.9791 30.587 31.7482 30.3022 31.5181 30.0174C31.4917 29.9595 31.4652 29.9016 31.4388 29.8437C31.8928 29.6693 32.3475 29.4956 32.8015 29.3211C32.8956 29.2906 32.9889 29.2601 33.0829 29.2288C33.6286 28.9729 34.1751 28.7171 34.7208 28.4612C35.0271 28.2656 35.3342 28.0708 35.6404 27.8752C35.8464 27.7226 36.0532 27.5693 36.2592 27.4167C36.3121 27.387 36.3649 27.3573 36.4178 27.3275C36.4675 27.279 36.5173 27.2313 36.5678 27.1828C36.9433 26.8456 37.3187 26.5084 37.6942 26.1712C37.9468 25.8965 38.2003 25.6219 38.4529 25.3473C38.4257 25.3168 38.3985 25.2863 38.3713 25.2558C37.9181 25.5523 37.4649 25.8488 37.0117 26.1453C36.9938 26.1406 36.9759 26.143 36.9596 26.1524C36.9316 26.15 36.9083 26.1586 36.8889 26.179C36.6572 26.3104 36.4256 26.4427 36.1931 26.5741C35.8869 26.7063 35.5798 26.8401 35.2735 26.9715C34.5436 27.2853 33.8136 27.599 33.0837 27.9128C33.0285 27.9206 32.9733 27.9276 32.9189 27.9355C32.9002 27.948 32.8808 27.9605 32.8622 27.973C32.573 28.0794 32.2838 28.1866 31.9946 28.293C31.92 28.3173 31.8454 28.3415 31.7708 28.3658C31.6922 28.3775 31.6129 28.39 31.5344 28.4018C31.1131 28.5301 30.6918 28.6592 30.2704 28.7875C30.2246 28.8063 30.1795 28.8258 30.1336 28.8446C30.0792 28.8516 30.0256 28.8579 29.9712 28.8649C29.8584 28.8837 29.7442 28.8955 29.6338 28.9236C29.1666 29.0418 28.7002 29.1646 28.2338 29.2859C27.9578 29.3211 27.6819 29.3571 27.4051 29.3923C27.3779 29.3884 27.3546 29.3954 27.3336 29.4134C27.2776 29.4134 27.2224 29.4126 27.1665 29.4126C27.1315 29.422 27.0965 29.4314 27.0615 29.4416C26.9931 29.4658 26.9239 29.4901 26.8555 29.5143C26.833 29.5065 26.8104 29.5073 26.7879 29.5167C26.7591 29.5167 26.7296 29.5167 26.7008 29.5167C26.6837 29.5065 26.6697 29.5096 26.6581 29.5261C26.6278 29.5167 26.5974 29.5065 26.5663 29.4971C26.1442 29.5495 25.7229 29.6012 25.3008 29.6536C24.787 29.6786 24.2724 29.7045 23.7585 29.7295C23.2354 29.7037 22.7122 29.6786 22.189 29.6528C21.6744 29.6278 21.1598 29.6035 20.6452 29.5785C20.3312 29.5425 20.0179 29.5065 19.7038 29.4705C19.679 29.4541 19.6541 29.4384 19.6284 29.422C19.4457 29.4236 19.2638 29.4251 19.0812 29.4267C18.9436 29.404 18.8044 29.3892 18.6684 29.3586C17.7939 29.1607 16.9201 28.9596 16.0464 28.7601C15.5038 28.6052 14.9612 28.4503 14.4186 28.2954C14.0175 28.1561 13.6163 28.0168 13.2145 27.8776C13.1764 27.8596 13.1375 27.8424 13.0994 27.8244C13.0217 27.7993 12.9439 27.7743 12.8654 27.7485C12.8133 27.7211 12.7605 27.6937 12.7084 27.6663C12.2435 27.4715 11.7795 27.2775 11.3146 27.0827C10.7945 26.8354 10.2753 26.5882 9.75521 26.3402C9.65105 26.2846 9.54611 26.2291 9.44194 26.1735C8.95065 25.913 8.45858 25.6516 7.96729 25.3911C7.95097 25.3457 7.93464 25.3004 7.91754 25.2558C7.90122 25.2659 7.88489 25.2761 7.86857 25.287C7.90355 25.3207 7.93775 25.3536 7.97273 25.3872C8.1935 25.6509 8.41427 25.9145 8.63426 26.179C9.00662 26.5248 9.37897 26.8698 9.75055 27.2157C10.2994 27.6061 10.8295 28.0262 11.4024 28.3775C11.8657 28.6623 12.3796 28.8642 12.8709 29.1036C13.3847 29.3086 13.8993 29.5136 14.4131 29.7185C14.4924 29.7608 14.5717 29.803 14.651 29.8453C14.4108 30.1802 14.1698 30.5158 13.9296 30.8507C13.3342 31.5587 12.7395 32.2668 12.144 32.9749C12.022 32.9804 11.8999 32.9858 11.7779 32.9913C11.7002 32.9913 11.6224 32.9913 11.5447 32.9913C11.4677 32.9913 11.3908 32.9913 11.3138 32.9913C10.7945 32.9475 10.2753 32.9037 9.75599 32.8599C9.34866 32.7918 8.94054 32.7237 8.53243 32.6557C8.50211 32.6447 8.4718 32.6338 8.4407 32.6228C8.36219 32.6064 8.28368 32.5899 8.20439 32.5735C7.16584 32.1925 6.12651 31.8115 5.08796 31.4304C5.03588 31.4038 4.9838 31.3772 4.93094 31.3498C4.77546 31.2732 4.61999 31.1957 4.46452 31.119C4.40855 31.0885 4.35258 31.058 4.29661 31.0283C4.24997 31.0064 4.20411 30.9845 4.15746 30.9626L4.14503 30.9539C3.69727 30.6386 3.24796 30.3257 2.80253 30.0072C2.52501 29.8085 2.25372 29.602 1.97931 29.3985C1.9008 29.3211 1.82228 29.2428 1.74377 29.1654C1.71423 29.1333 1.68469 29.1012 1.65515 29.0699C1.63339 29.048 1.6124 29.0261 1.59063 29.005C1.40484 28.818 1.21905 28.631 1.03327 28.444C1.0115 28.4221 0.989734 28.401 0.968745 28.3791C0.913553 28.322 0.857583 28.2648 0.802391 28.2077C0.77907 28.1608 0.756527 28.1131 0.733206 28.0661C0.677236 28.0106 0.621267 27.955 0.565297 27.8995C0.516324 27.8455 0.46735 27.7923 0.418377 27.7383C0.0973281 27.3369 -0.0589208 26.8878 0.0203697 26.3675C0.029698 26.3065 0.00793195 26.2416 0.000935739 26.1782C0.0273659 25.6516 0.0530187 25.1251 0.0794488 24.5978C0.104324 24.0798 0.128422 23.5619 0.153298 23.0447C0.15563 22.9884 0.157962 22.932 0.160294 22.8757C0.178173 22.8546 0.185169 22.8311 0.180505 22.8037L0.192166 22.7881L0.224815 22.774L0.224037 22.7411C0.262905 22.3179 0.300996 21.8946 0.339864 21.4721C0.363184 21.4291 0.401275 21.3884 0.408271 21.3422C0.559856 20.3462 0.709108 19.3494 0.858361 18.3527C0.960972 17.8261 1.06358 17.2996 1.16619 16.7738C1.27813 16.2551 1.3893 15.7356 1.50124 15.2168C1.51989 15.1894 1.53933 15.1621 1.55798 15.1347C1.5953 14.9735 1.63261 14.8115 1.66914 14.6504C1.6808 14.6332 1.69246 14.6167 1.70413 14.5995C1.70879 14.5416 1.71345 14.4845 1.7189 14.4266C1.73444 14.3781 1.74999 14.3304 1.76476 14.2819C1.8013 14.1747 1.83783 14.0675 1.87437 13.9603C1.88758 13.9368 1.8868 13.9141 1.87359 13.8914C1.8868 13.839 1.90002 13.7866 1.91323 13.7342C1.94044 13.634 1.96843 13.5339 1.99563 13.433C2.13634 12.9815 2.27704 12.5301 2.41774 12.0794C2.58254 11.5842 2.74812 11.0889 2.91292 10.5936C2.93624 10.5185 2.95956 10.4434 2.98288 10.3683C2.99765 10.3503 3.00464 10.3292 3.00387 10.3057C3.08471 10.0929 3.16556 9.8801 3.2464 9.66729C3.26506 9.60783 3.28372 9.54915 3.30237 9.48969C3.31481 9.47091 3.32725 9.45291 3.34046 9.43413C3.35135 9.3778 3.36145 9.32225 3.37233 9.26592C3.39799 9.2135 3.42286 9.1603 3.44851 9.10787L3.45473 9.10005C3.47261 9.0492 3.49127 8.99912 3.50915 8.94827C3.53791 8.87081 3.56667 8.79413 3.59544 8.71668C3.78122 8.24802 3.96701 7.77937 4.1528 7.31071L4.15591 7.3068C4.19711 7.22856 4.23909 7.14954 4.28029 7.0713C4.29894 7.00558 4.31838 6.93986 4.33703 6.87413C4.35336 6.83736 4.36968 6.79981 4.38601 6.76303L4.38756 6.75443C4.41088 6.70592 4.4342 6.65663 4.45752 6.60812C4.48318 6.55492 4.50883 6.50171 4.53526 6.44851C4.55158 6.42269 4.56791 6.39609 4.58423 6.37027C4.613 6.29203 4.64176 6.21379 4.67052 6.13555C4.67674 6.10973 4.68296 6.0847 4.68918 6.05888C4.71638 6.00567 4.74437 5.95325 4.77158 5.90005C4.84309 5.78034 4.92472 5.66533 4.98535 5.54015C5.3577 4.77184 5.66942 3.95971 6.48798 3.52939C6.52219 3.49575 6.55561 3.4621 6.58982 3.42846H6.62091L6.64812 3.41359C7.02902 3.1734 7.40915 2.93242 7.79005 2.69223C7.92998 2.62259 8.0699 2.55218 8.20983 2.48254C8.59462 2.28069 8.97863 2.07961 9.36343 1.87775C9.44272 1.83472 9.52201 1.79169 9.60052 1.74866C9.65105 1.7377 9.70158 1.72597 9.75133 1.71501C10.1742 1.52646 10.5994 1.3379 11.0246 1.14934ZM13.5588 15.3569C13.4912 15.3905 13.4228 15.4234 13.3552 15.457C13.1942 15.6158 13.0333 15.7739 12.8724 15.9327C12.6664 16.2167 12.4612 16.5 12.2552 16.784C12.0826 17.3027 11.9093 17.8214 11.7367 18.3409C11.5214 18.8988 11.6403 19.4512 11.7624 20.0043C11.9614 20.491 12.1611 20.9776 12.3601 21.465C12.5304 21.6739 12.6998 21.8836 12.8701 22.0925C13.8449 23.2192 15.0848 23.5243 16.498 23.2646C16.7172 23.2239 16.9217 23.1049 17.1331 23.022C17.2124 22.9962 17.2909 22.9704 17.3702 22.9446C17.4277 22.9007 17.4853 22.8577 17.542 22.8139L17.5443 22.8202C18.1787 22.5401 18.6085 22.044 18.9615 21.4658C19.0089 21.3759 19.0563 21.2851 19.1037 21.1943C19.267 20.764 19.4302 20.3337 19.5934 19.9042C19.6168 19.7915 19.6626 19.6773 19.6595 19.5654C19.6463 19.1601 19.6168 18.7548 19.5942 18.3495C19.5942 18.2337 19.6113 18.1148 19.5903 18.0029C19.3944 16.9412 18.8145 16.1025 17.9952 15.4539C17.4176 14.997 16.7468 14.6793 15.9717 14.7036C15.1656 14.6089 14.4155 14.7576 13.7384 15.2231L13.7267 15.2309C13.6677 15.2732 13.6094 15.3162 13.5503 15.3584L13.5588 15.3569ZM31.131 23.1832C31.1559 23.1761 31.1807 23.1683 31.2064 23.1613C31.253 23.1433 31.2997 23.1261 31.3463 23.1081C32.0591 22.8491 32.6966 22.4892 33.0775 21.789C33.6535 21.2976 33.8346 20.6154 33.9738 19.9128C33.9746 19.3878 33.9746 18.8636 33.9753 18.3386C33.9746 18.2877 33.9746 18.2361 33.9738 18.1852C33.9893 18.1618 33.9901 18.1375 33.9753 18.1133C33.9466 17.9802 33.9178 17.8472 33.8898 17.7142C33.8766 17.6947 33.8642 17.6751 33.851 17.6548C33.8129 17.5445 33.7748 17.4341 33.7359 17.3238C33.7227 17.3035 33.7087 17.2831 33.6955 17.2636C33.6823 17.2049 33.6691 17.1462 33.6551 17.0875C33.6426 17.0672 33.6302 17.0469 33.6177 17.0265C33.5633 16.9459 33.5089 16.8661 33.4545 16.7855C33.334 16.5923 33.2135 16.3998 33.093 16.2066C32.7308 15.7833 32.3981 15.3256 31.8267 15.1589C31.7233 15.1049 31.6199 15.0502 31.5166 14.9962C31.4365 14.9665 31.3556 14.9359 31.2756 14.9062C31.2561 14.8929 31.2367 14.8804 31.2165 14.8671C30.8022 14.8131 30.3878 14.7599 29.9727 14.7059C29.7566 14.7145 29.5358 14.6957 29.3252 14.7349C28.226 14.9406 27.3833 15.5673 26.7755 16.4765C26.4062 17.0281 26.1139 17.6462 26.1201 18.3503C25.9211 18.8753 26.0168 19.3956 26.1481 19.9143C26.2064 20.1522 26.2375 20.4018 26.3269 20.6271C26.7358 21.6599 27.3624 22.5017 28.418 22.9485C28.4895 22.9821 28.5603 23.0158 28.6318 23.0494C29.0422 23.3326 29.497 23.3882 29.9766 23.317C30.286 23.2912 30.5954 23.2661 30.9048 23.2403L30.939 23.2513L30.9732 23.2387C31.026 23.2207 31.0781 23.202 31.131 23.1832Z" fill="#FF06D7"/>
</svg>
