<svg width="44" height="36" viewBox="0 0 44 36" fill="none" xmlns="http://www.w3.org/2000/svg">
<g clip-path="url(#clip0)">
<path d="M13.291 28.1766C10.8388 28.0663 8.75494 27.1412 7.04559 25.3887C6.06921 24.3877 5.37418 23.2048 4.93884 21.836C5.29575 21.8808 5.61997 21.9337 5.94623 21.9589C6.27095 21.9841 6.59822 21.9976 6.92329 21.9869C7.25293 21.976 7.58223 21.9356 7.91017 21.8958C8.23355 21.8566 8.55353 21.7944 8.87115 21.6863C6.7959 21.1848 5.07165 20.1233 3.74191 18.4421C2.40979 16.7581 1.7744 14.8317 1.80218 12.6728C3.0457 13.3288 4.3502 13.7092 5.75108 13.7682C3.41379 12.0239 2.0666 9.72606 1.87282 6.78455C1.75255 4.95967 2.17146 3.25993 3.06924 1.65602C3.11396 1.69472 3.14564 1.71603 3.16986 1.74382C3.56794 2.19924 3.95416 2.66573 4.36578 3.10835C4.71948 3.48874 5.09993 3.84424 5.47209 4.2069C6.05582 4.7757 6.6758 5.3034 7.32424 5.79496C7.83734 6.18404 8.36381 6.55608 8.89317 6.92249C9.56735 7.38915 10.2775 7.79665 10.9997 8.18335C12.3078 8.88344 13.6658 9.46382 15.0745 9.92418C16.3197 10.3312 17.5873 10.6476 18.8823 10.8447C19.409 10.9249 19.9385 10.9873 20.4678 11.0493C20.7455 11.0819 21.0255 11.092 21.3036 11.1201C21.4139 11.1313 21.5221 11.1743 21.6438 11.109C21.6361 11.0492 21.6292 10.9883 21.6207 10.9278C21.5638 10.5194 21.4962 10.1124 21.4534 9.70253C21.4258 9.4391 21.4154 9.1709 21.4307 8.90679C21.4649 8.31532 21.5106 7.72453 21.6402 7.14346C21.8672 6.12624 22.2468 5.17211 22.795 4.28738C23.1121 3.7757 23.4766 3.30136 23.8876 2.86061C24.5568 2.14246 25.3206 1.55354 26.1801 1.08466C27.0461 0.612372 27.9613 0.290463 28.9328 0.12985C29.2372 0.0795522 29.5409 0.0290835 29.8514 0.0270375C30.2169 0.0246505 30.5835 -0.013201 30.9477 0.00487222C31.4293 0.0287425 31.9085 0.0918284 32.3818 0.194812C33.1412 0.360028 33.8679 0.617316 34.561 0.96821C35.2852 1.33479 35.9452 1.79821 36.5484 2.34246C36.7074 2.48602 36.8551 2.64254 37.0035 2.79753C37.0491 2.8451 37.0918 2.85635 37.1533 2.8422C37.3344 2.8006 37.5175 2.76701 37.6982 2.72404C38.8652 2.44663 39.9962 2.06045 41.0829 1.55201C41.6088 1.30597 42.1145 1.01612 42.6293 0.746045C42.6725 0.723369 42.7157 0.700862 42.7643 0.675287C42.776 0.939565 42.3881 1.84476 41.918 2.63402C41.5543 3.24476 41.1171 3.80076 40.6192 4.3063C40.1189 4.8144 39.5638 5.25617 38.9665 5.64969C39.8366 5.55932 40.6861 5.37467 41.5263 5.14432C42.363 4.915 43.1744 4.61099 43.9714 4.26606C43.9809 4.27749 43.9903 4.28891 44 4.30033C43.928 4.41048 43.8584 4.52233 43.7833 4.63026C43.3495 5.25378 42.8788 5.84832 42.3704 6.41132C41.9957 6.8265 41.6049 7.22632 41.1918 7.60484C40.6911 8.06383 40.1744 8.50168 39.6263 8.90151C39.5351 8.968 39.5145 9.04848 39.5162 9.14993C39.5206 9.41608 39.5217 9.68224 39.5256 9.94822C39.53 10.2437 39.5422 10.5392 39.539 10.8345C39.5368 11.0256 39.5117 11.2166 39.4994 11.4077C39.4924 11.5146 39.4945 11.6222 39.4851 11.7289C39.4421 12.2287 39.4118 12.7301 39.3479 13.2271C39.2761 13.7876 39.184 14.346 39.0818 14.9018C38.8435 16.1988 38.4952 17.4672 38.0633 18.712C37.7826 19.5212 37.4621 20.3144 37.107 21.0941C36.6151 22.1743 36.0541 23.2165 35.427 24.2222C34.7787 25.2617 34.0607 26.2513 33.2698 27.1858C32.9813 27.5265 32.6808 27.8573 32.3772 28.1845C32.0962 28.4874 31.8162 28.7932 31.5137 29.0735C31.0043 29.5456 30.4888 30.0124 29.9547 30.4554C29.4896 30.8411 29.0034 31.2025 28.5113 31.5532C27.83 32.0387 27.1216 32.4828 26.3893 32.8879C25.4694 33.3971 24.5224 33.8479 23.5445 34.2312C22.7826 34.5297 22.0091 34.795 21.2199 35.0144C20.5137 35.2109 19.8036 35.3892 19.0829 35.5191C18.5303 35.6187 17.975 35.706 17.4187 35.7815C16.9748 35.8417 16.5276 35.8799 16.081 35.9198C15.8529 35.9403 15.623 35.9415 15.394 35.9542C15.2095 35.9645 15.0254 35.9791 14.8411 35.9918C14.8074 35.994 14.7738 35.9979 14.7401 35.9981C14.1701 35.9989 13.5999 36.0027 13.0299 35.9979C12.8458 35.9964 12.6618 35.9703 12.4775 35.9582C12.3713 35.9512 12.2646 35.9513 12.1582 35.9452C11.4644 35.9062 10.7755 35.8245 10.0876 35.7258C9.22264 35.6018 8.36872 35.4255 7.52209 35.2117C6.55316 34.967 5.60473 34.6571 4.6712 34.2995C3.78459 33.9601 2.91831 33.5737 2.08151 33.126C1.43002 32.7774 0.798352 32.3914 0.158722 32.0206C0.112986 31.994 0.0743638 31.9551 0 31.8963C3.29657 32.2683 6.43035 31.8093 9.43607 30.5023C10.8226 29.8994 12.1061 29.1188 13.291 28.1766Z" fill="#FF06D7"/>
</g>
<defs>
<clipPath id="clip0">
<rect width="44" height="36" fill="white"/>
</clipPath>
</defs>
</svg>
